<svg xmlns="http://www.w3.org/2000/svg" xmlns:xlink="http://www.w3.org/1999/xlink" xmlns:inkscape="http://www.inkscape.org/namespaces/inkscape" version="1.1" width="841.8898" height="595.2756" viewBox="0 0 841.8898 595.2756">
<path transform="matrix(1,0,0,-1,176.2722,231.94889)" d="M0 0C-.781 0-1.298 0-2.074 0-32.16 0-56.529-25.409-56.529-55.49-56.529-85.571-32.16-109.948-2.074-109.948 3.372-109.948 8.818-109.171 13.749-107.612 30.601-102.166 43.82-88.422 51.087-71.822L84.282 0ZM561.178-9.328V-11.918C560.921-16.329 559.623-21.259 556.505-26.185L535.504-71.822C531.871-79.351 538.351-79.351 541.207-79.351H556.505V-94.13H534.206C525.131-94.13 513.458-80.902 520.982-64.565L542.242-18.927C548.212-5.437 535.246-4.917 529.276-17.88L494.007-94.13H477.42L512.68-17.626C518.127-5.961 505.937-3.363 501.015-14.255L464.191-94.13H447.073L477.42-27.999H477.673C485.451-11.918 485.451-6.215 477.158-9.591L375.237-67.163C381.465-73.906 390.016-78.57 399.618-79.351 401.174-79.609 402.47-79.609 404.029-79.609 416.73-79.609 427.879-73.644 435.146-64.565H452.256C443.185-81.941 425.027-94.13 404.029-94.13 402.47-94.13 401.174-94.13 399.618-93.868 384.832-92.575 371.612-85.309 362.537-74.417L328.041-94.13C316.896-98.537 301.851-89.196 302.632-71.822L303.414-70.015C293.557-84.532 276.953-94.13 258.545-94.13 232.872-94.13 211.349-76.238 205.642-52.375 199.939-76.238 178.674-94.13 153.001-94.13 129.146-94.13 108.917-78.57 101.65-57.306L78.312-109.948H556.505V-125.25H54.459L61.463-109.948 101.397-23.072C104.507-14.255 109.437-6.215 116.434 0H100.882L67.944-71.574C63.795-79.609 59.647-87.387 55.498-93.61 50.826-100.874 37.602-117.211 13.749-123.168 8.818-124.211 3.633-124.985-2.074-125.25-40.449-125.25-71.832-93.868-71.832-55.49-71.832-17.11-40.449 14.267-2.074 14.267-1.298 14.267-.781 14.267 0 14.267H90.768C98.55 30.086 113.84 41.496 131.998 43.572H152.489V29.308H131.998C122.142 28.011 113.84 22.049 107.878 14.267H148.851V14.01C150.144 14.267 151.703 14.267 153.001 14.267 178.674 14.267 199.939-3.621 205.642-27.479 211.349-3.621 232.872 14.267 258.545 14.267 288.112 14.267 312.485-10.106 312.485-39.929 312.485-44.851 311.712-49.786 310.414-54.45L349.57 30.086H241.174V44.606H556.505V30.086H368.245L321.04-71.822C317.931-77.789 323.638-79.09 335.045-71.822L354.235-60.935C351.384-54.45 349.828-47.449 349.828-39.929 349.828-11.407 371.874 11.932 399.618 14.01 401.174 14.267 402.47 14.267 404.029 14.267 421.917 14.267 437.74 5.45 447.85-8.032L461.598 0C477.673 11.154 490.378 12.971 496.601 .523 505.681 11.678 519.423 10.639 526.424 1.298 543.797 15.307 560.396 6.228 561.178-9.328ZM435.146-15.031C427.879-5.961 416.73 0 404.029 0 402.47 0 401.174-.25 399.618-.25 379.909-2.323 364.35-19.442 364.35-39.929 364.35-44.851 365.126-49.523 366.682-53.934ZM258.545-79.609C280.325-79.609 298.226-61.716 298.226-39.929 298.226-17.88 280.325 0 258.545 0 236.5 0 218.608-17.88 218.608-39.929 218.608-61.716 236.5-79.609 258.545-79.609ZM153.001-79.609C175.041-79.609 192.942-61.716 192.942-39.929 192.942-17.88 175.041 0 153.001 0 130.955 0 113.324-17.88 113.324-39.929 113.324-61.716 130.955-79.609 153.001-79.609" fill="#ed1c24" fill-rule="evenodd"/>
<path transform="matrix(1,0,0,-1,585.3402,180.30869)" d="M0 0H2.046V3.608H2.656C3.508 3.592 3.899 3.292 4.157 2.137 4.415 1.01 4.648 .275 4.781 0H6.897C6.718 .357 6.448 1.554 6.165 2.599 5.932 3.442 5.583 4.041 4.943 4.299V4.34C5.728 4.623 6.555 5.421 6.555 6.568 6.555 7.404 6.256 8.036 5.703 8.473 5.05 9.001 4.103 9.205 2.748 9.205 1.638 9.205 .661 9.121 0 9.001ZM2.046 7.591C2.195 7.633 2.478 7.657 2.98 7.657 3.929 7.657 4.498 7.225 4.498 6.402 4.498 5.608 3.886 5.097 2.856 5.097H2.046Z" fill="#ed1c24"/>
<path transform="matrix(1,0,0,-1,598.3024,180.45838)" d="M0 0C2.668 0 4.473 1.804 4.473 4.814 4.473 7.333 2.939 9.433 .137 9.433-2.549 9.433-4.307 7.387-4.307 4.652-4.307 2.049-2.71 0-.013 0ZM.082 1.643C-1.302 1.643-2.125 2.985-2.125 4.706-2.125 6.411-1.327 7.795 .096 7.795 1.517 7.795 2.29 6.386 2.29 4.743 2.29 2.955 1.492 1.643 .096 1.643Z" fill="#ed1c24"/>
<path transform="matrix(1,0,0,-1,605.2232,180.30869)" d="M0 0H2.046V2.985L2.819 3.945 5.068 0H7.466L4.295 5.246 7.317 9.134H4.773L2.712 6.098C2.495 5.774 2.279 5.45 2.075 5.097H2.046V9.134H0Z" fill="#ed1c24"/>
<path transform="matrix(1,0,0,-1,617.9029,180.30869)" d="M0 0H7.083V1.709H2.765V1.763L7.017 7.94V9.134H.391V7.429H4.348V7.387L0 1.115Z" fill="#ed1c24"/>
<path transform="matrix(1,0,0,-1,632.2371,177.96356)" d="M0 0 .702-2.345H2.926L.079 6.789H-2.62L-5.409-2.345H-3.268L-2.631 0ZM-2.332 1.546-1.775 3.483C-1.643 4.011-1.493 4.702-1.372 5.246H-1.33C-1.194 4.718-1.031 4.024-.882 3.483L-.312 1.546Z" fill="#ed1c24"/>
<path transform="matrix(1,0,0,-1,643.2622,180.30869)" d="M0 0V1.738H-3.634V4.556L-1.926 5.708V7.143L-3.634 5.991V9.134H-5.692V4.623L-6.71 3.916V2.495L-5.692 3.184V0Z" fill="#ed1c24"/>
<path transform="matrix(1,0,0,-1,648.9493,180.45838)" d="M0 0C2.668 0 4.472 1.804 4.472 4.814 4.472 7.333 2.942 9.433 .137 9.433-2.549 9.433-4.307 7.387-4.307 4.652-4.307 2.049-2.712 0-.013 0ZM.083 1.643C-1.302 1.643-2.125 2.985-2.125 4.706-2.125 6.411-1.327 7.795 .095 7.795 1.517 7.795 2.29 6.386 2.29 4.743 2.29 2.955 1.492 1.643 .095 1.643Z" fill="#ed1c24"/>
<path transform="matrix(1,0,0,-1,655.3009,180.30869)" d="M0 0H7.088V1.709H2.764V1.763L7.021 7.94V9.134H.395V7.429H4.353V7.387L0 1.115ZM3.662 9.665C4.174 9.665 4.569 10.098 4.569 10.585 4.569 11.112 4.174 11.52 3.662 11.52 3.13 11.52 2.71 11.112 2.71 10.585 2.71 10.098 3.118 9.665 3.646 9.665Z" fill="#ed1c24"/>
<path transform="matrix(1,0,0,-1,670.2205,174.76297)" d="M0 0H-3.363V1.896H.204V3.588H-5.421V-5.546H.391V-3.85H-3.363V-1.684H0Z" fill="#ed1c24"/>
<path transform="matrix(1,0,0,-1,675.0145,180.30869)" d="M0 0V2.752C0 4.245-.03 5.529-.096 6.751H-.043C.39 5.679 1.001 4.515 1.542 3.526L3.496 0H5.662V9.134H3.766V6.477C3.766 5.097 3.804 3.862 3.927 2.656H3.899C3.479 3.687 2.951 4.827 2.411 5.787L.511 9.134H-1.9V0Z" fill="#ed1c24"/>
<path transform="matrix(1,0,0,-1,683.5731,180.30869)" d="M0 0H2.06V9.133H0Z" fill="#ed1c24"/>
<path transform="matrix(1,0,0,-1,693.2597,177.96356)" d="M0 0 .702-2.345H2.927L.079 6.789H-2.618L-5.408-2.345H-3.268L-2.631 0ZM-2.332 1.546-1.775 3.483C-1.642 4.011-1.492 4.702-1.372 5.246H-1.331C-1.193 4.718-1.031 4.024-.882 3.483L-.311 1.546Z" fill="#ed1c24"/>
<path transform="matrix(1,0,0,-1,704.6337,180.30869)" d="M0 0H1.991V8.809H.299L-2.046 7.724-1.709 6.182-.025 6.98H0Z" fill="#ed1c24"/>
<path transform="matrix(1,0,0,-1,711.2563,180.42887)" d="M0 0C.232-.016 .599-.03 .936 0 2.319 .054 3.483 .461 4.323 1.235 5.271 2.112 5.858 3.442 5.858 5.284 5.858 7.345 4.784 9.078 2.523 9.078 .586 9.078-.798 7.628-.798 5.907-.798 4.186 .449 3.159 1.941 3.159 2.752 3.159 3.322 3.388 3.728 3.796L3.753 3.783C3.603 3.118 3.225 2.536 2.644 2.153 2.169 1.829 1.534 1.642 .893 1.613 .49 1.584 .27 1.571 0 1.613ZM2.469 7.574C3.404 7.574 3.766 6.651 3.753 5.72 3.753 5.462 3.728 5.325 3.658 5.192 3.458 4.876 3.076 4.623 2.494 4.623 1.667 4.623 1.247 5.271 1.247 6.028 1.247 6.95 1.763 7.574 2.452 7.574Z" fill="#ed1c24"/>
<path transform="matrix(1,0,0,-1,722.418,180.45838)" d="M0 0C2.224 0 3.322 1.888 3.322 4.598 3.322 7.009 2.386 9.108 .041 9.108-2.232 9.108-3.305 7.105-3.305 4.544-3.289 2.049-2.286 0-.013 0ZM.017 1.559C-.769 1.559-1.26 2.536-1.243 4.569-1.243 6.56-.757 7.55 .017 7.55 .844 7.55 1.263 6.519 1.263 4.569 1.263 2.565 .827 1.559 .029 1.559Z" fill="#ed1c24"/>
<path transform="matrix(1,0,0,-1,733.7341,171.49997)" d="M0 0H-4.851L-5.422-4.618C-5.068-4.564-4.731-4.539-4.245-4.539-2.482-4.539-1.763-5.092-1.763-6.003-1.763-6.937-2.674-7.345-3.526-7.345-4.323-7.345-5.122-7.1-5.504-6.909L-5.882-8.455C-5.396-8.713-4.502-8.958-3.43-8.958-1.06-8.958 .349-7.508 .349-5.865 .349-4.839-.054-4.107-.72-3.658-1.33-3.209-2.195-3.022-3.035-3.022-3.256-3.022-3.417-3.035-3.604-3.046L-3.417-1.691H0Z" fill="#ed1c24"/>
<path transform="matrix(1,0,0,-1,110.2567,425.48509)" d="M0 0H13.561V21.73C14.816 21.463 16.433 21.373 18.229 21.373 26.315 21.373 33.229 23.438 37.896 27.749 41.58 31.071 43.467 36.101 43.467 42.116 43.467 48.045 40.952 53.074 36.999 56.034 32.958 59.36 26.943 60.978 18.5 60.978 10.147 60.978 4.22 60.437 0 59.718ZM13.561 50.11C14.55 50.38 16.433 50.559 19.127 50.559 26.045 50.559 29.907 47.237 29.907 41.667 29.907 35.561 25.417 31.882 18.142 31.882 16.076 31.882 14.729 31.969 13.561 32.239Z" fill="#ed1c24"/>
<path transform="matrix(1,0,0,-1,160.0974,422.61219)" d="M0 0C3.413-1.888 10.239-3.787 17.152-3.787 33.768-3.787 41.488 4.851 41.488 14.995 41.488 23.529 36.549 29.096 25.865 33.049 17.963 36.01 14.637 37.718 14.637 41.58 14.637 44.631 17.514 47.416 23.437 47.416 29.274 47.416 33.676 45.711 36.013 44.544L39.064 55.498C35.473 57.207 30.534 58.553 23.617 58.553 9.429 58.553 .719 50.738 .719 40.412 .719 31.61 7.362 26.045 17.423 22.453 24.697 19.937 27.57 17.78 27.57 14.01 27.57 10.056 24.248 7.453 17.963 7.453 12.126 7.453 6.376 9.341 2.785 11.224Z" fill="#ed1c24"/>
<path transform="matrix(1,0,0,-1,208.59,422.61219)" d="M0 0C3.413-1.888 10.239-3.787 17.153-3.787 33.768-3.787 41.493 4.851 41.493 14.995 41.493 23.529 36.549 29.096 25.866 33.049 17.964 36.01 14.637 37.718 14.637 41.58 14.637 44.631 17.515 47.416 23.442 47.416 29.279 47.416 33.678 45.711 36.013 44.544L39.065 55.498C35.474 57.207 30.535 58.553 23.621 58.553 9.433 58.553 .719 50.738 .719 40.412 .719 31.61 7.366 26.045 17.423 22.453 24.698 19.937 27.57 17.78 27.57 14.01 27.57 10.056 24.249 7.453 17.964 7.453 12.127 7.453 6.378 9.341 2.786 11.224Z" fill="#ed1c24"/>
<path transform="matrix(1,0,0,-1,272.622,381.57307)" d="M0 0 12.842-43.912H25.683L30.081-28.468C31.163-24.427 32.061-20.295 32.867-14.816H33.046C33.944-20.295 34.755-24.248 35.923-28.555L40.05-43.912H52.804L66.273 0H52.892L49.213-17.423C48.132-22.449 47.234-27.478 46.606-32.417H46.428C45.621-27.391 44.453-22.539 43.193-17.51L38.796 0H28.02L23.347-18.137C22.361-22.449 21.015-27.478 20.204-32.417H19.939C19.219-27.391 18.321-22.539 17.51-18.05L13.918 0Z" fill="#ed1c24"/>
<path transform="matrix(1,0,0,-1,361.5282,422.61219)" d="M0 0C3.413-1.888 10.238-3.787 17.151-3.787 33.763-3.787 41.488 4.851 41.488 14.995 41.488 23.529 36.549 29.096 25.865 33.049 17.959 36.01 14.637 37.718 14.637 41.58 14.637 44.631 17.51 47.416 23.437 47.416 29.274 47.416 33.676 45.711 36.009 44.544L39.064 55.498C35.472 57.207 30.534 58.553 23.616 58.553 9.428 58.553 .719 50.738 .719 40.412 .719 31.61 7.361 26.045 17.421 22.453 24.697 19.937 27.57 17.78 27.57 14.01 27.57 10.056 24.248 7.453 17.959 7.453 12.122 7.453 6.376 9.341 2.784 11.224Z" fill="#ed1c24"/>
<path transform="matrix(1,0,0,-1,411.9083,425.48509)" d="M0 0H13.65V43.912H0ZM13.652 0H0ZM6.825 49.299C11.315 49.299 14.101 52.355 14.101 56.126 14.009 59.988 11.315 62.952 6.913 62.952 2.515 62.952-.362 59.988-.362 56.126-.362 52.355 2.423 49.299 6.735 49.299Z" fill="#ed1c24"/>
<path transform="matrix(1,0,0,-1,475.3089,407.88337)" d="M0 0C.178 .985 .449 3.051 .449 5.388 .449 16.255-4.939 27.3-19.126 27.3-34.305 27.3-41.31 14.995-41.31 3.862-41.31-9.877-32.78-18.516-17.872-18.516-11.943-18.516-6.465-17.602-1.975-15.719L-3.771-6.468C-7.453-7.724-11.224-8.351-15.897-8.351-22.271-8.351-27.841-5.657-28.29 0ZM-28.377 9.337C-28.019 12.933-25.683 18.229-19.846 18.229-13.652 18.229-12.214 12.663-12.214 9.337Z" fill="#ed1c24"/>
<path transform="matrix(1,0,0,-1,512.8481,361.63557)" d="M0 0V-23.886H-.184C-2.157-20.923-6.29-18.948-11.765-18.948-22.274-18.948-31.523-27.57-31.433-42.299-31.433-55.946-23.081-64.851-12.663-64.851-7.006-64.851-1.618-62.324 1.076-57.472H1.347L1.883-63.85H14.009C13.826-60.885 13.647-55.676 13.647-50.738V0ZM0-44.365C0-45.442-.092-46.518-.271-47.416-1.082-51.279-4.312-53.972-8.265-53.972-13.923-53.972-17.602-49.303-17.602-41.937-17.602-35.023-14.462-29.457-8.173-29.457-3.953-29.457-.99-32.417-.184-36.101 0-36.911 0-37.809 0-38.615Z" fill="#ed1c24"/>
<path transform="matrix(1,0,0,-1,537.4545,425.48509)" d="M0 0H13.649V63.85H0Z" fill="#ed1c24"/>
<path transform="matrix(1,0,0,-1,593.4875,414.26078)" d="M0 0C-2.061-.898-4.577-1.438-7.81-1.438-14.458-1.438-19.845 2.786-19.845 10.867-19.933 17.963-15.265 23.081-8.081 23.081-4.49 23.081-2.061 22.453-.449 21.734L1.709 31.882C-1.163 32.959-5.117 33.586-8.708 33.586-25.054 33.586-33.856 23.081-33.856 10.326-33.856-3.413-24.784-12.139-10.596-12.139-5.388-12.139-.806-11.224 1.618-10.06Z" fill="#ed1c24"/>
<path transform="matrix(1,0,0,-1,639.5573,399.53199)" d="M0 0C0 10.326-4.581 18.949-19.219 18.949-27.208 18.949-33.227 16.704-36.28 14.995L-33.764 6.286C-30.892 7.991-26.131 9.516-21.641 9.516-14.907 9.516-13.647 6.195-13.647 3.863V3.322C-29.183 3.322-39.422-2.066-39.422-13.473-39.422-20.478-34.125-26.955-25.233-26.955-20.025-26.955-15.535-25.055-12.662-21.554H-12.392L-11.581-25.953H.72C.179-23.529 0-19.489 0-15.356ZM-13.198-9.968C-13.198-10.779-13.29-11.586-13.469-12.305-14.367-15.086-17.239-17.331-20.565-17.331-23.616-17.331-25.953-15.627-25.953-12.126-25.953-6.917-20.387-5.209-13.198-5.209Z" fill="#ed1c24"/>
<path transform="matrix(1,0,0,-1,681.7654,414.26078)" d="M0 0C-2.066-.898-4.582-1.438-7.812-1.438-14.459-1.438-19.847 2.786-19.847 10.867-19.937 17.963-15.265 23.081-8.081 23.081-4.49 23.081-2.066 22.453-.449 21.734L1.709 31.882C-1.168 32.959-5.118 33.586-8.71 33.586-25.055 33.586-33.855 23.081-33.855 10.326-33.855-3.413-24.785-12.139-10.596-12.139-5.388-12.139-.807-11.224 1.617-10.06Z" fill="#ed1c24"/>
<path transform="matrix(1,0,0,-1,690.9276,425.48509)" d="M0 0H13.648V26.04C13.648 27.03 13.739 28.198 14.097 29.005 15.086 31.52 17.331 33.857 20.922 33.857 26.04 33.857 28.015 29.903 28.015 24.157V0H41.667V25.591C41.667 38.883 35.02 44.902 26.31 44.902 23.795 44.902 21.281 44.274 19.214 43.193 17.061 42.116 15.265 40.591 13.826 38.616H13.648V63.85H0Z" fill="#ed1c24"/>
<path transform="matrix(1,0,0,-1,176.1004,243.22507)" d="M0 0C23.706 0 42.932-19.226 42.932-42.932 42.932-66.638 23.706-85.863 0-85.863-23.706-85.863-42.932-66.638-42.932-42.932-42.932-19.226-23.706 0 0 0" fill="#ed1c24" fill-rule="evenodd"/>
</svg>
